<svg xmlns="http://www.w3.org/2000/svg" x="0px" y="0px"
width="100" height="100"
viewBox="0 0 172 172"
style=" fill:#000000;"><g fill="none" fill-rule="nonzero" stroke="none" stroke-width="1" stroke-linecap="butt" stroke-linejoin="miter" stroke-miterlimit="10" stroke-dasharray="" stroke-dashoffset="0" font-family="none" font-weight="none" font-size="none" text-anchor="none" style="mix-blend-mode: normal"><path d="M0,172v-172h172v172z" fill="none"></path><g><path d="M150.0098,97.5412c1.9522,-3.7066 3.0702,-7.9206 3.0702,-12.4012c0,-11.38812 -7.15348,-21.08204 -17.20172,-24.90216c0,-0.01204 0.00172,-0.02408 0.00172,-0.03784c0,-19.94856 -16.17144,-36.12 -36.12,-36.12c-16.82848,0 -30.92732,11.52572 -34.93836,27.10204c-2.53872,-0.8342 -5.24428,-1.30204 -8.06164,-1.30204c-13.23024,0 -24.11956,9.96396 -25.6108,22.79344c-8.95088,1.89372 -15.6692,9.83324 -15.6692,19.34656c0,10.92372 8.85628,19.78 19.78,19.78c0.30444,0 0.60544,-0.02064 0.90472,-0.03784c-0.00688,0.301 -0.04472,0.59512 -0.04472,0.89784c0,19.47384 15.78616,35.26 35.26,35.26c11.07164,0 20.941,-5.11184 27.40648,-13.09608c3.74616,3.827 8.95432,6.21608 14.73352,6.21608c7.998,0 14.91928,-4.558 18.34552,-11.21096c1.80944,0.5762 3.73412,0.89096 5.73448,0.89096c10.449,0 18.92,-8.471 18.92,-18.92c0,-5.69492 -2.5284,-10.78956 -6.5102,-14.2588z" fill="#3498db"></path><path d="M133.3,104.06v0.86h5.16v-0.86c0,0 7.29624,0 9.46,0c4.2742,0 7.74,-3.4658 7.74,-7.74c0,-4.01276 -3.06504,-7.27388 -6.9746,-7.6626c0.03784,-0.31132 0.0946,-0.61576 0.0946,-0.9374c0,-4.2742 -3.4658,-7.74 -7.74,-7.74c-2.47336,0 -4.64916,1.17992 -6.06644,2.98592c-0.2408,-4.53392 -3.95944,-8.14592 -8.55356,-8.14592c-4.74892,0 -8.6,3.85108 -8.6,8.6c0,0.76712 0.13244,1.4964 0.32164,2.20504c-1.10424,-1.33644 -2.75372,-2.20504 -4.62164,-2.20504c-3.06332,0 -5.56248,2.2962 -5.9426,5.2546c-0.31132,-0.03784 -0.61576,-0.0946 -0.9374,-0.0946c-4.2742,0 -7.74,3.4658 -7.74,7.74c0,4.2742 3.4658,7.74 7.74,7.74c4.2742,0 16.34,0 16.34,0z" fill="#fdfcef"></path><path d="M126.42,73.96c-5.21676,0 -9.46,4.24324 -9.46,9.46c0,0.02752 0,0.05332 0,0.08084c-1.03544,-0.6106 -2.2188,-0.94084 -3.44,-0.94084c-3.14932,0 -5.86692,2.16892 -6.63576,5.1686c-0.08084,-0.00516 -0.16168,-0.0086 -0.24424,-0.0086c-4.74204,0 -8.6,3.85796 -8.6,8.6c0,4.74204 3.85796,8.6 8.6,8.6h26.66c0.47472,0 0.86,-0.38528 0.86,-0.86c0,-0.47472 -0.38528,-0.86 -0.86,-0.86h-26.66c-3.79432,0 -6.88,-3.08568 -6.88,-6.88c0,-3.79432 3.08568,-6.88 6.88,-6.88c0.20124,0 0.3956,0.02924 0.58996,0.05504l0.24252,0.03268c0.03612,0.00516 0.07052,0.00688 0.10664,0.00688c0.42312,0 0.79464,-0.3182 0.8514,-0.75164c0.32852,-2.56796 2.51636,-4.50296 5.08948,-4.50296c1.5222,0 2.96356,0.68972 3.95772,1.892c0.16856,0.20296 0.41452,0.31304 0.66392,0.31304c0.13416,0 0.26832,-0.03096 0.39216,-0.09632c0.35948,-0.18404 0.54008,-0.59512 0.43688,-0.98556c-0.1978,-0.7482 -0.29068,-1.37772 -0.29068,-1.98316c0,-4.26732 3.47268,-7.74 7.74,-7.74c4.09532,0 7.47684,3.21984 7.69528,7.33236c0.01892,0.35776 0.258,0.66564 0.60028,0.774c0.086,0.02752 0.17372,0.04128 0.26144,0.04128c0.258,0 0.50912,-0.11868 0.67424,-0.33024c1.32612,-1.68904 3.28864,-2.6574 5.38876,-2.6574c3.79432,0 6.88,3.08568 6.88,6.88c0,0.20124 -0.02924,0.3956 -0.05504,0.58996l-0.03268,0.24252c-0.02752,0.23048 0.03784,0.46096 0.18232,0.64156c0.14448,0.1806 0.35604,0.29584 0.5848,0.3182c3.53632,0.3526 6.2006,3.28004 6.2006,6.80776c0,3.79432 -3.08568,6.88 -6.88,6.88h-9.46c-0.47472,0 -0.86,0.38528 -0.86,0.86c0,0.47472 0.38528,0.86 0.86,0.86h9.46c4.74204,0 8.6,-3.85796 8.6,-8.6c0,-4.12284 -2.90508,-7.59036 -6.88516,-8.38844c0.00344,-0.07052 0.00516,-0.14104 0.00516,-0.21156c0,-4.74204 -3.85796,-8.6 -8.6,-8.6c-2.02272,0 -3.94396,0.71552 -5.47476,2.00208c-1.02856,-4.13488 -4.75064,-7.16208 -9.14524,-7.16208z" fill="#472b29"></path><path d="M123.84,86c-2.41316,0 -4.48748,1.71828 -5.01036,4.02652c-0.63124,-0.38184 -1.35192,-0.58652 -2.08464,-0.58652c-2.06744,0 -3.78056,1.54284 -4.04716,3.55696c-0.34916,-0.07912 -0.68112,-0.11696 -1.00448,-0.11696c-2.62988,0 -4.83492,2.064 -5.01896,4.69904c-0.0172,0.23736 0.16168,0.44376 0.39732,0.46096c0.01032,0 0.02064,0 0.03096,0c0.2236,0 0.4128,-0.17372 0.42828,-0.39904c0.15308,-2.18612 1.97972,-3.90096 4.16068,-3.90096c0.39388,0 0.8084,0.07224 1.26936,0.21844c0.03784,0.01204 0.0774,0.0172 0.11524,0.0172c0.0946,0 0.1892,-0.0344 0.26832,-0.09288c0.11008,-0.07912 0.17544,-0.22016 0.17544,-0.35776c0,-1.77848 1.44652,-3.225 3.225,-3.225c0.76884,0 1.5222,0.28896 2.11732,0.81356c0.08084,0.07052 0.18232,0.10836 0.2838,0.10836c0.05504,0 0.10836,-0.01032 0.15996,-0.03268c0.15136,-0.0602 0.25456,-0.20124 0.2666,-0.36464c0.17888,-2.22396 2.05196,-3.9646 4.26732,-3.9646c0.35776,0 0.731,0.05848 1.17304,0.18404c0.03956,0.01204 0.08084,0.0172 0.1204,0.0172c0.18748,0 0.35604,-0.12556 0.41108,-0.31304c0.06536,-0.22876 -0.06708,-0.46612 -0.29584,-0.53148c-0.51944,-0.14792 -0.96836,-0.21672 -1.40868,-0.21672zM147.71876,88.58c-2.28072,0 -4.31376,1.54284 -4.94328,3.75304c-0.06536,0.22876 0.06708,0.46612 0.29584,0.53148c0.04128,0.01032 0.08084,0.01548 0.11868,0.01548c0.18748,0 0.35948,-0.12384 0.4128,-0.31304c0.5246,-1.8404 2.21708,-3.12696 4.11596,-3.12696c0.20124,0 0.3956,0.02408 0.58824,0.04988c0.02064,0.00344 0.03956,0.00516 0.0602,0.00516c0.20812,0 0.39388,-0.15824 0.42312,-0.37324c0.03268,-0.23564 -0.13244,-0.45236 -0.36808,-0.48332c-0.23048,-0.03096 -0.4644,-0.05848 -0.70348,-0.05848z" fill="#472b29"></path><path d="M26.66,87.72h-17.2c-0.47472,0 -0.86,-0.38528 -0.86,-0.86c0,-0.47472 0.38528,-0.86 0.86,-0.86h17.2c0.47472,0 0.86,0.38528 0.86,0.86c0,0.47472 -0.38356,0.86 -0.86,0.86zM31.82,87.72h-1.72c-0.47472,0 -0.86,-0.38528 -0.86,-0.86c0,-0.47472 0.38528,-0.86 0.86,-0.86h1.72c0.47472,0 0.86,0.38528 0.86,0.86c0,0.47472 -0.38356,0.86 -0.86,0.86zM40.40452,91.16h-15.46452c-0.47472,0 -0.86,-0.38528 -0.86,-0.86c0,-0.47472 0.38528,-0.86 0.86,-0.86h15.46452c0.47472,0 0.86,0.38528 0.86,0.86c0,0.47472 -0.38528,0.86 -0.86,0.86zM21.5,91.16h-1.72c-0.47472,0 -0.86,-0.38528 -0.86,-0.86c0,-0.47472 0.38528,-0.86 0.86,-0.86h1.72c0.47472,0 0.86,0.38528 0.86,0.86c0,0.47472 -0.38356,0.86 -0.86,0.86zM16.34,91.16h-3.44c-0.47472,0 -0.86,-0.38528 -0.86,-0.86c0,-0.47472 0.38528,-0.86 0.86,-0.86h3.44c0.47472,0 0.86,0.38528 0.86,0.86c0,0.47472 -0.38356,0.86 -0.86,0.86zM26.66,94.6h-3.44c-0.47472,0 -0.86,-0.38528 -0.86,-0.86c0,-0.47472 0.38528,-0.86 0.86,-0.86h3.44c0.47472,0 0.86,0.38528 0.86,0.86c0,0.47472 -0.38528,0.86 -0.86,0.86zM31.82,79.12c-0.30444,0 -1.41556,0 -1.72,0c-0.47472,0 -0.86,0.38528 -0.86,0.86c0,0.47472 0.38528,0.86 0.86,0.86c0.30444,0 1.41556,0 1.72,0c0.47472,0 0.86,-0.38528 0.86,-0.86c0,-0.47472 -0.38528,-0.86 -0.86,-0.86zM31.82,82.56c-0.30444,0 -8.29556,0 -8.6,0c-0.47472,0 -0.86,0.38528 -0.86,0.86c0,0.47472 0.38528,0.86 0.86,0.86c0.30444,0 8.29556,0 8.6,0c0.47472,0 0.86,-0.38528 0.86,-0.86c0,-0.47472 -0.38528,-0.86 -0.86,-0.86zM40.42,86c-0.30444,0 -4.85556,0 -5.16,0c-0.47472,0 -0.86,0.38528 -0.86,0.86c0,0.47472 0.38528,0.86 0.86,0.86c0.30444,0 4.85556,0 5.16,0c0.47472,0 0.86,-0.38528 0.86,-0.86c0,-0.47472 -0.38528,-0.86 -0.86,-0.86z" fill="#ffffff"></path><g fill="#ffffff"><path d="M124.7,41.28h-17.2c-0.47472,0 -0.86,-0.38528 -0.86,-0.86c0,-0.47472 0.38528,-0.86 0.86,-0.86h17.2c0.47472,0 0.86,0.38528 0.86,0.86c0,0.47472 -0.38528,0.86 -0.86,0.86zM131.58,41.28h-3.44c-0.47472,0 -0.86,-0.38528 -0.86,-0.86c0,-0.47472 0.38528,-0.86 0.86,-0.86h3.44c0.47472,0 0.86,0.38528 0.86,0.86c0,0.47472 -0.38528,0.86 -0.86,0.86zM140.18,44.72h-17.2c-0.47472,0 -0.86,-0.38528 -0.86,-0.86c0,-0.47472 0.38528,-0.86 0.86,-0.86h17.2c0.47472,0 0.86,0.38528 0.86,0.86c0,0.47472 -0.38356,0.86 -0.86,0.86zM119.54,44.72h-1.72c-0.47472,0 -0.86,-0.38528 -0.86,-0.86c0,-0.47472 0.38528,-0.86 0.86,-0.86h1.72c0.47472,0 0.86,0.38528 0.86,0.86c0,0.47472 -0.38528,0.86 -0.86,0.86zM114.3284,44.72h-3.3884c-0.47472,0 -0.86,-0.38528 -0.86,-0.86c0,-0.47472 0.38528,-0.86 0.86,-0.86h3.3884c0.47472,0 0.86,0.38528 0.86,0.86c0,0.47472 -0.38528,0.86 -0.86,0.86zM129.86,37.84h-8.6c-0.47472,0 -0.86,-0.38528 -0.86,-0.86c0,-0.47472 0.38528,-0.86 0.86,-0.86h8.6c0.47472,0 0.86,0.38528 0.86,0.86c0,0.47472 -0.38356,0.86 -0.86,0.86zM124.7,48.16h-3.44c-0.47472,0 -0.86,-0.38528 -0.86,-0.86c0,-0.47472 0.38528,-0.86 0.86,-0.86h3.44c0.47472,0 0.86,0.38528 0.86,0.86c0,0.47472 -0.38528,0.86 -0.86,0.86z"></path></g><g><path d="M89.44,46.01c-22.08587,0 -39.99,17.90413 -39.99,39.99c0,22.08587 17.90413,39.99 39.99,39.99c22.08587,0 39.99,-17.90413 39.99,-39.99c0,-22.08587 -17.90413,-39.99 -39.99,-39.99z" fill="#a3a3cd"></path><path d="M89.44,127.194c-22.71432,0 -41.194,-18.47968 -41.194,-41.194c0,-22.71432 18.47968,-41.194 41.194,-41.194c22.71432,0 41.194,18.47968 41.194,41.194c0,22.71432 -18.47968,41.194 -41.194,41.194zM89.44,47.214c-21.38648,0 -38.786,17.3978 -38.786,38.786c0,21.3882 17.39952,38.786 38.786,38.786c21.38648,0 38.786,-17.3978 38.786,-38.786c0,-21.3882 -17.39952,-38.786 -38.786,-38.786z" fill="#472b29"></path></g><g fill="#4aa7e7"><path d="M89.44,52.46c-18.52363,0 -33.54,15.01637 -33.54,33.54c0,18.52363 15.01637,33.54 33.54,33.54c18.52363,0 33.54,-15.01637 33.54,-33.54c0,-18.52363 -15.01637,-33.54 -33.54,-33.54z"></path></g><g fill="#472b29"><path d="M121.47156,77.37764c-0.36808,0 -0.70864,-0.23736 -0.82216,-0.60716c-0.14448,-0.473 -0.301,-0.94256 -0.46612,-1.40352c-0.645,-1.80256 -1.46028,-3.55868 -2.42176,-5.22192c-0.23908,-0.41108 -0.09804,-0.9374 0.31304,-1.17476c0.4128,-0.24424 0.9374,-0.09976 1.17476,0.31476c1.01308,1.75268 1.87136,3.6034 2.55076,5.49884c0.17544,0.48676 0.33884,0.98212 0.49364,1.4792c0.13932,0.4558 -0.11524,0.93568 -0.56932,1.075c-0.08428,0.02752 -0.17028,0.03956 -0.25284,0.03956z"></path></g><g fill="#472b29"><path d="M89.44,120.4602c-19.00084,0 -34.4602,-15.41292 -34.4602,-34.35872c0,-18.94408 15.45764,-34.357 34.4602,-34.357c9.86248,0 19.27088,4.22604 25.81204,11.5928c0.49364,0.55556 0.97008,1.13004 1.42932,1.72c0.29068,0.37496 0.2236,0.91504 -0.14964,1.20572c-0.37324,0.29756 -0.91504,0.2236 -1.20744,-0.15136c-0.43516,-0.559 -0.88752,-1.10424 -1.35708,-1.63228c-6.21608,-7.0004 -15.15492,-11.01488 -24.52548,-11.01488c-18.05312,0 -32.7402,14.64064 -32.7402,32.637c0,17.99636 14.68536,32.63872 32.73848,32.63872c18.05312,0 32.7402,-14.64236 32.7402,-32.63872c0,-1.6426 -0.12384,-3.28864 -0.36636,-4.89512c-0.07052,-0.46956 0.25284,-0.90816 0.7224,-0.97868c0.47128,-0.07396 0.90816,0.25112 0.97868,0.72068c0.25628,1.69076 0.38528,3.42452 0.38528,5.15312c0,18.9458 -15.45936,34.35872 -34.4602,34.35872z"></path></g><g><path d="M62.78,126.42c0,0 2.69524,0 6.02,0c3.32476,0 6.02,-2.69524 6.02,-6.02c0,-3.06332 -2.2962,-5.56248 -5.2546,-5.9426c0.04816,-0.30788 0.0946,-0.61576 0.0946,-0.9374c0,-3.32476 -2.69524,-6.02 -6.02,-6.02c-1.77504,0 -3.354,0.7826 -4.4548,2.0038c-0.66048,-3.10976 -3.41764,-5.4438 -6.7252,-5.4438c-3.79948,0 -6.88,3.08052 -6.88,6.88c0,0.32852 0.0516,0.64328 0.09632,0.95976c-0.73616,-0.59168 -1.65808,-0.95976 -2.67632,-0.95976c-2.11216,0 -3.8614,1.52564 -4.2226,3.5346c-0.30788,-0.04816 -0.61576,-0.0946 -0.9374,-0.0946c-3.32476,0 -6.02,2.69524 -6.02,6.02c0,3.32476 2.69524,6.02 6.02,6.02c3.32476,0 12.9,0 12.9,0v0.86h12.04z" fill="#fdfcef"></path><path d="M65.79,118.68c-0.23736,0 -0.43,-0.19264 -0.43,-0.43c0,-2.10356 1.7114,-3.81496 3.81496,-3.81496c0.05848,0.01548 1.26764,-0.00172 2.13968,0.23392c0.22876,0.06192 0.36464,0.29756 0.30272,0.52632c-0.06192,0.23048 -0.29756,0.36636 -0.52632,0.30272c-0.76368,-0.2064 -1.892,-0.2064 -1.91436,-0.20296c-1.63056,0 -2.95668,1.32612 -2.95668,2.95496c0,0.23736 -0.19264,0.43 -0.43,0.43zM54.18,125.56c-0.47496,0 -0.86,0.38504 -0.86,0.86c0,0.47496 0.38504,0.86 0.86,0.86c0.47496,0 0.86,-0.38504 0.86,-0.86c0,-0.47496 -0.38504,-0.86 -0.86,-0.86z" fill="#472b29"></path><path d="M68.8,127.28h-6.02c-0.47472,0 -0.86,-0.38528 -0.86,-0.86c0,-0.47472 0.38528,-0.86 0.86,-0.86h6.02c2.84488,0 5.16,-2.31512 5.16,-5.16c0,-2.57312 -1.935,-4.76096 -4.50296,-5.08948c-0.23048,-0.03096 -0.4386,-0.15136 -0.57792,-0.33712c-0.13932,-0.18576 -0.1978,-0.41968 -0.16168,-0.64844c0.03956,-0.26488 0.08256,-0.52976 0.08256,-0.80496c0,-2.84488 -2.31512,-5.16 -5.16,-5.16c-1.462,0 -2.81736,0.6106 -3.81668,1.72c-0.215,0.23908 -0.55212,0.34056 -0.86,0.25456c-0.31304,-0.08428 -0.55212,-0.3354 -0.6192,-0.65188c-0.58652,-2.75888 -3.0616,-4.76268 -5.88412,-4.76268c-3.3196,0 -6.02,2.7004 -6.02,6.02c0,0.24596 0.03612,0.4816 0.07052,0.71896c0.04988,0.34916 -0.10836,0.75336 -0.41624,0.9288c-0.30788,0.17544 -0.68112,0.20296 -0.95632,-0.0172c-0.6278,-0.50396 -1.36568,-0.77056 -2.13796,-0.77056c-1.66152,0 -3.08224,1.18852 -3.37636,2.82768c-0.08256,0.45924 -0.50912,0.76712 -0.97868,0.6966c-0.26488,-0.04128 -0.52976,-0.08428 -0.80496,-0.08428c-2.84488,0 -5.16,2.31512 -5.16,5.16c0,2.84488 2.31512,5.16 5.16,5.16h12.9c0.47472,0 0.86,0.38528 0.86,0.86c0,0.47472 -0.38528,0.86 -0.86,0.86h-12.9c-3.79432,0 -6.88,-3.08568 -6.88,-6.88c0,-3.79432 3.08568,-6.88 6.88,-6.88c0.10148,0 0.19952,0.00344 0.29928,0.01032c0.71208,-2.03992 2.64364,-3.45032 4.86072,-3.45032c0.60028,0 1.18508,0.10492 1.73892,0.3096c0.2838,-4.01276 3.6378,-7.1896 7.72108,-7.1896c3.14932,0 5.96152,1.93844 7.14316,4.77128c1.1696,-0.85656 2.58344,-1.33128 4.03684,-1.33128c3.79432,0 6.88,3.08568 6.88,6.88c0,0.08256 -0.00172,0.1634 -0.00688,0.24424c2.99796,0.77056 5.16688,3.48644 5.16688,6.63576c0,3.79432 -3.08568,6.88 -6.88,6.88z" fill="#472b29"></path><path d="M59.34,125.56c-0.27348,0 -1.44652,0 -1.72,0c-0.47472,0 -0.86,0.38528 -0.86,0.86c0,0.47472 0.38528,0.86 0.86,0.86c0.27348,0 1.44652,0 1.72,0c0.47472,0 0.86,-0.38528 0.86,-0.86c0,-0.47472 -0.38528,-0.86 -0.86,-0.86z" fill="#472b29"></path></g><g><path d="M109.2888,71.9476c0.4902,-2.7262 0.1978,-6.01828 -0.903,-9.31724c-5.5384,0 -9.80572,3.7668 -10.53328,4.45136h-15.84808c-0.72928,-0.68284 -4.99488,-4.45136 -10.53328,-4.45136c-0.99072,2.97216 -1.3244,5.934 -1.02684,8.48648c-3.11664,2.8294 -5.08432,6.90064 -5.08432,11.44316c0,8.55012 6.92988,15.48 15.48,15.48h3.1562c-2.47852,1.1352 -4.28796,3.44 -4.74032,6.2178c-2.78468,0.2838 -6.15416,0.0258 -7.78472,-2.42004c-3.0444,-4.5666 -4.5666,-4.5666 -6.0888,-4.5666c-1.5222,0 -1.5222,1.5222 0,3.0444c1.5222,1.5222 1.5222,1.5222 3.0444,4.5666c1.25388,2.50776 4.49264,5.34748 10.69496,4.57692v5.72932c0,1.12144 0.02924,1.94188 0.43,2.91712c3.72724,1.29 10.82912,2.25664 19.63896,0.05332c0.35432,-0.92536 0.56932,-1.91952 0.56932,-2.97044v-9.589c0,-3.36432 -2.00552,-6.24532 -4.8762,-7.56112h3.1562c8.55012,0 15.48,-6.92988 15.48,-15.48c0,-4.1108 -1.61508,-7.83976 -4.2312,-10.61068z" fill="#fefdef"></path><path d="M88.92228,120.33292c-5.00348,0 -8.39016,-0.97524 -9.65264,-1.41212c-0.2322,-0.08084 -0.41968,-0.25628 -0.51428,-0.48504c-0.45924,-1.11628 -0.49536,-2.04852 -0.49536,-3.24564v-4.7816c-7.17412,0.51084 -9.91752,-3.7668 -10.6038,-5.13936c-1.46028,-2.92056 -1.46028,-2.92056 -2.88272,-4.343c-1.18336,-1.18336 -1.65292,-2.46476 -1.2556,-3.4228c0.28724,-0.69144 0.96664,-1.09048 1.86276,-1.09048c2.05196,0 3.741,0.35432 6.80432,4.95016c1.2986,1.94704 4.05232,2.23084 6.35368,2.09496c0.42312,-1.763 1.3502,-3.34024 2.6488,-4.55456h-0.34744c-9.00936,0 -16.34,-7.33064 -16.34,-16.34c0,-4.43416 1.83352,-8.7032 5.04476,-11.78372c-0.23392,-2.62816 0.1462,-5.5298 1.11112,-8.42112c0.11696,-0.35088 0.44548,-0.58824 0.81528,-0.58824c5.3836,0 9.59588,3.32476 10.86696,4.45136h15.18244c1.27108,-1.1266 5.48336,-4.45136 10.86524,-4.45136c0.3698,0 0.69832,0.23736 0.81528,0.58824c1.07156,3.20952 1.42244,6.49816 1.00448,9.31724c2.69524,3.00484 4.17444,6.85248 4.17444,10.88416c0,9.00936 -7.33064,16.34 -16.34,16.34h-0.34572c1.8318,1.70968 2.92572,4.128 2.92572,6.70112v9.589c0,1.08876 -0.21156,2.18956 -0.6278,3.2766c-0.09976,0.26144 -0.32164,0.45924 -0.59512,0.52804c-3.98696,0.9976 -7.51468,1.33816 -10.4748,1.33816zM80.21392,117.42268c2.30308,0.72756 8.88896,2.27384 18.31972,0.01204c0.24424,-0.75164 0.36636,-1.50328 0.36636,-2.2446v-9.589c0,-2.90336 -1.71656,-5.56248 -4.37396,-6.7768c-0.36808,-0.17028 -0.56932,-0.57104 -0.48332,-0.96664c0.086,-0.39388 0.43516,-0.67768 0.84108,-0.67768h3.1562c8.06164,0 14.62,-6.55836 14.62,-14.62c0,-3.7324 -1.419,-7.29108 -3.99728,-10.02244c-0.18748,-0.1978 -0.26832,-0.473 -0.22016,-0.74132c0.44204,-2.46132 0.19952,-5.3836 -0.68112,-8.2904c-4.87964,0.26316 -8.6,3.526 -9.3224,4.20024c-0.15824,0.14964 -0.3698,0.23392 -0.58824,0.23392h-15.84808c-0.21844,0 -0.43,-0.08428 -0.58824,-0.23392c-0.72068,-0.67596 -4.44276,-3.93708 -9.3224,-4.20024c-0.78948,2.61096 -1.0664,5.1944 -0.79464,7.50952c0.03268,0.2752 -0.07052,0.54868 -0.2752,0.73616c-3.05128,2.77264 -4.80224,6.71316 -4.80224,10.80848c0,8.06164 6.55836,14.62 14.62,14.62h3.1562c0.4042,0 0.75336,0.28208 0.83936,0.67768c0.086,0.39388 -0.11352,0.79636 -0.4816,0.96492c-2.2618,1.03716 -3.85108,3.12008 -4.25012,5.57452c-0.06364,0.38528 -0.37496,0.6794 -0.76196,0.71724c-4.1194,0.41796 -7.08984,-0.5504 -8.58796,-2.79844c-2.78984,-4.18476 -4.04544,-4.18476 -5.37328,-4.18476c-0.21844,0 -0.29068,0.04816 -0.29068,0.04988c-0.03268,0.10148 0.09288,0.71896 0.89956,1.52736c1.62196,1.62024 1.68044,1.74064 3.20608,4.7902c0.58996,1.1782 3.04268,4.96048 9.81948,4.10908c0.24424,-0.03268 0.49192,0.04472 0.67596,0.20812c0.18404,0.1634 0.29068,0.39732 0.29068,0.645v5.72932c-0.00172,0.903 0.01548,1.54628 0.2322,2.23256z" fill="#472b29"></path></g><g><path d="M108.52856,87.5566c-1.46544,3.24736 -4.68184,5.94432 -10.34408,6.3984" fill="#fefdef"></path><path d="M98.18276,94.385c-0.22188,0 -0.40936,-0.172 -0.42828,-0.3956c-0.01892,-0.23564 0.15652,-0.44376 0.39388,-0.46268c6.18512,-0.49536 8.84424,-3.61716 9.98632,-6.14556c0.09804,-0.21844 0.35088,-0.31476 0.56932,-0.215c0.215,0.09804 0.31304,0.35088 0.215,0.5676c-1.74924,3.87688 -5.55044,6.23844 -10.70184,6.64952c-0.01032,0.00172 -0.02236,0.00172 -0.0344,0.00172z" fill="#472b29"></path></g><g><path d="M109.37824,81.1238c0.1806,1.22636 0.17716,2.52668 -0.04816,3.81324" fill="#fefdef"></path><path d="M109.33008,85.36704c-0.0258,0 -0.04988,-0.00172 -0.07568,-0.00688c-0.23392,-0.03956 -0.39044,-0.26316 -0.34916,-0.49708c0.20984,-1.19196 0.22532,-2.46304 0.04644,-3.67736c-0.03612,-0.23392 0.12728,-0.45408 0.3612,-0.48676c0.22876,-0.03096 0.45408,0.12728 0.48848,0.36292c0.19608,1.32096 0.17888,2.65052 -0.04988,3.94912c-0.0344,0.20984 -0.21672,0.35604 -0.4214,0.35604z" fill="#472b29"></path></g><g><path d="M106.32352,75.36868c1.03028,0.73272 1.8662,1.91952 2.42176,3.34712" fill="#fefdef"></path><path d="M108.74528,79.1458c-0.172,0 -0.33368,-0.10492 -0.40076,-0.27348c-0.5418,-1.39148 -1.32612,-2.48024 -2.2704,-3.15104c-0.19264,-0.1376 -0.23908,-0.40592 -0.10148,-0.60028c0.13932,-0.19436 0.40764,-0.2408 0.60028,-0.1032c1.08016,0.76884 1.97112,1.99348 2.57312,3.54148c0.086,0.22188 -0.02408,0.46956 -0.24424,0.55728c-0.0516,0.01892 -0.10492,0.02924 -0.15652,0.02924z" fill="#472b29"></path></g></g></g></svg>