<svg xmlns="http://www.w3.org/2000/svg" x="0px" y="0px"
width="64" height="64"
viewBox="0 0 172 172"
style=" fill:#000000;"><g fill="none" fill-rule="nonzero" stroke="none" stroke-width="1" stroke-linecap="butt" stroke-linejoin="miter" stroke-miterlimit="10" stroke-dasharray="" stroke-dashoffset="0" font-family="none" font-weight="none" font-size="none" text-anchor="none" style="mix-blend-mode: normal"><path d="M0,172v-172h172v172z" fill="none"></path><g><path d="M13.47781,19.46825l14.68988,121.59863c0.52138,4.30806 3.59319,7.88781 7.79375,9.08106l47.12531,13.37569c1.90544,0.54019 3.92375,0.55363 5.83725,0.03494l49.56287,-13.42675c4.33763,-1.17444 7.49544,-4.88319 7.94156,-9.32831l12.22544,-121.44006c0.31981,-3.17394 -2.18762,-5.92594 -5.39919,-5.92594h-134.39112c-3.25187,0 -5.77544,2.82456 -5.38575,6.03075z" fill="#f1c40f"></path><path d="M153.25469,13.4375h-67.25469v150.5c0.98363,0.00538 1.96725,-0.12094 2.924,-0.37894l49.56287,-13.42675c4.33763,-1.17444 7.49544,-4.88319 7.94156,-9.32831l12.22544,-121.44006c0.31981,-3.17394 -2.18762,-5.92594 -5.39919,-5.92594z" fill="#f1c40f"></path><path d="M86.06719,166.625c-1.24969,0 -2.50206,-0.172 -3.71681,-0.516l-47.12531,-13.37569c-5.25406,-1.49156 -9.073,-5.94206 -9.72875,-11.34394l-14.68987,-121.59862c-0.27681,-2.28437 0.44344,-4.58219 1.96994,-6.30756c1.54263,-1.73612 3.75981,-2.73319 6.08987,-2.73319h134.39112c2.29512,0 4.4935,0.97288 6.03075,2.67406c1.52381,1.68775 2.27094,3.95063 2.0425,6.21081l-12.22813,121.44006c-0.559,5.51475 -4.54188,10.19637 -9.91688,11.64762l-49.5575,13.42675c-1.16637,0.31713 -2.36231,0.47569 -3.56094,0.47569zM18.86625,16.125c-0.80356,0 -1.53725,0.32787 -2.064,0.9245c-0.516,0.58319 -0.74981,1.32762 -0.65575,2.09625v0l14.68988,121.59863c0.39238,3.24381 2.69288,5.92056 5.85875,6.81819l47.128,13.37569c1.43781,0.40581 2.95625,0.41656 4.39944,0.02687l49.56019,-13.42675c3.23844,-0.87613 5.64106,-3.68994 5.97431,-7.00094l12.22544,-121.44275c0.07525,-0.76056 -0.16662,-1.49425 -0.67994,-2.06669c-0.52944,-0.58319 -1.25775,-0.903 -2.04788,-0.903z" fill="#8d6c9f"></path><path d="M18.8125,32.25c-1.48619,0 -2.6875,-1.20131 -2.6875,-2.6875v-5.375c0,-1.48619 1.20131,-2.6875 2.6875,-2.6875c1.48619,0 2.6875,1.20131 2.6875,2.6875v5.375c0,1.48619 -1.20131,2.6875 -2.6875,2.6875zM32.25,32.25c-1.48619,0 -2.6875,-1.20131 -2.6875,-2.6875v-5.375c0,-1.48619 1.20131,-2.6875 2.6875,-2.6875c1.48619,0 2.6875,1.20131 2.6875,2.6875v5.375c0,1.48619 -1.20131,2.6875 -2.6875,2.6875zM45.6875,32.25c-1.48619,0 -2.6875,-1.20131 -2.6875,-2.6875v-5.375c0,-1.48619 1.20131,-2.6875 2.6875,-2.6875c1.48619,0 2.6875,1.20131 2.6875,2.6875v5.375c0,1.48619 -1.20131,2.6875 -2.6875,2.6875zM59.125,32.25c-1.48619,0 -2.6875,-1.20131 -2.6875,-2.6875v-5.375c0,-1.48619 1.20131,-2.6875 2.6875,-2.6875c1.48619,0 2.6875,1.20131 2.6875,2.6875v5.375c0,1.48619 -1.20131,2.6875 -2.6875,2.6875zM72.5625,32.25c-1.48619,0 -2.6875,-1.20131 -2.6875,-2.6875v-5.375c0,-1.48619 1.20131,-2.6875 2.6875,-2.6875c1.48619,0 2.6875,1.20131 2.6875,2.6875v5.375c0,1.48619 -1.20131,2.6875 -2.6875,2.6875zM86,32.25c-1.48619,0 -2.6875,-1.20131 -2.6875,-2.6875v-5.375c0,-1.48619 1.20131,-2.6875 2.6875,-2.6875c1.48619,0 2.6875,1.20131 2.6875,2.6875v5.375c0,1.48619 -1.20131,2.6875 -2.6875,2.6875zM99.4375,32.25c-1.48619,0 -2.6875,-1.20131 -2.6875,-2.6875v-5.375c0,-1.48619 1.20131,-2.6875 2.6875,-2.6875c1.48619,0 2.6875,1.20131 2.6875,2.6875v5.375c0,1.48619 -1.20131,2.6875 -2.6875,2.6875zM112.875,32.25c-1.48619,0 -2.6875,-1.20131 -2.6875,-2.6875v-5.375c0,-1.48619 1.20131,-2.6875 2.6875,-2.6875c1.48619,0 2.6875,1.20131 2.6875,2.6875v5.375c0,1.48619 -1.20131,2.6875 -2.6875,2.6875zM126.3125,32.25c-1.48619,0 -2.6875,-1.20131 -2.6875,-2.6875v-5.375c0,-1.48619 1.20131,-2.6875 2.6875,-2.6875c1.48619,0 2.6875,1.20131 2.6875,2.6875v5.375c0,1.48619 -1.20131,2.6875 -2.6875,2.6875zM139.75,32.25c-1.48619,0 -2.6875,-1.20131 -2.6875,-2.6875v-5.375c0,-1.48619 1.20131,-2.6875 2.6875,-2.6875c1.48619,0 2.6875,1.20131 2.6875,2.6875v5.375c0,1.48619 -1.20131,2.6875 -2.6875,2.6875zM153.1875,32.25c-1.48619,0 -2.6875,-1.20131 -2.6875,-2.6875v-5.375c0,-1.48619 1.20131,-2.6875 2.6875,-2.6875c1.48619,0 2.6875,1.20131 2.6875,2.6875v5.375c0,1.48619 -1.20131,2.6875 -2.6875,2.6875z" fill="#8d6c9f"></path><path d="M126.36088,45.6875h-80.67338c-1.65013,0 -2.91056,1.47275 -2.65256,3.10406l6.7725,43.00269c0.20694,1.30612 1.333,2.26825 2.65525,2.26825h51.89563c1.60981,0 2.85681,1.40556 2.66869,3.00194l-2.06669,17.49025l-18.70769,5.70288l-16.52006,-5.59538l-1.19325,-7.58144c-0.20694,-1.30613 -1.333,-2.26825 -2.65525,-2.26825h-10.88169c-1.65013,0 -2.91056,1.47544 -2.65525,3.10675l2.72512,17.30481c0.15319,0.97288 0.83312,1.78181 1.76837,2.09625l28.36119,9.60512c0.27144,0.09137 0.55094,0.13706 0.83312,0.13706c0.25531,0 0.51062,-0.03763 0.75787,-0.11288l31.29056,-9.53525c1.00513,-0.30637 1.73613,-1.17981 1.85706,-2.22256l5.22719,-44.24969c0.19081,-1.59906 -1.05619,-3.00462 -2.666,-3.00462h-56.25475c-1.32225,0 -2.44831,-0.96213 -2.65525,-2.26825l-1.69313,-10.75c-0.258,-1.63131 1.00244,-3.10675 2.65525,-3.10675h60.48756c1.36256,0 2.51012,-1.01856 2.66869,-2.37306l1.27656,-10.80106c0.18544,-1.5695 -1.04275,-2.95087 -2.62569,-2.95087z" fill="#faefde"></path><path d="M86.03763,139.75c-0.56706,0 -1.13144,-0.09137 -1.677,-0.27412l-28.38,-9.6105c-1.88394,-0.63425 -3.24919,-2.25212 -3.56094,-4.21937l-2.72781,-17.31019c-0.24456,-1.55338 0.20156,-3.13094 1.22281,-4.32688c1.02394,-1.19594 2.51281,-1.88125 4.08769,-1.88125h10.88438c2.66331,0 4.89662,1.91081 5.3105,4.54187l0.94063,5.97163l14.16313,4.7945l16.20294,-4.93694l1.85437,-15.74875h-51.89563c-2.66331,0 -4.89662,-1.91081 -5.3105,-4.54187l-6.77519,-43c-0.24456,-1.55069 0.20156,-3.12825 1.22281,-4.32419c1.02394,-1.19863 2.51281,-1.88394 4.08769,-1.88394h80.67606c1.51844,0 2.96969,0.65038 3.98019,1.78719c1.0105,1.13413 1.48888,2.65256 1.3115,4.16563l-1.27656,10.80375c-0.31712,2.70362 -2.61225,4.74344 -5.33737,4.74344h-60.48756l1.69581,10.75h56.25475c1.53456,0 2.99925,0.65844 4.01781,1.806c1.01856,1.14487 1.50231,2.67675 1.31956,4.20056l-5.22719,44.24969c-0.24994,2.107 -1.72,3.86463 -3.74906,4.48006l-31.28519,9.53794c-0.49987,0.1505 -1.01856,0.22575 -1.54262,0.22575zM55.00238,107.5l2.72781,17.30481l28.33431,9.57556l31.23681,-9.54063l5.20031,-44.21475h-56.25744c-2.66331,0 -4.89663,-1.91081 -5.3105,-4.54188l-1.69312,-10.74731c-0.24456,-1.55338 0.20156,-3.13094 1.22281,-4.32688c1.02394,-1.19594 2.51281,-1.88125 4.08769,-1.88125h60.49025l1.27119,-10.75269h-80.625l6.77519,43h51.89563c1.53456,0 2.99925,0.65844 4.01781,1.806c1.01856,1.14487 1.50231,2.67675 1.31956,4.20056l-2.06669,17.49025c-0.12631,1.06156 -0.86538,1.94575 -1.88394,2.25481l-18.70769,5.70287c-0.54019,0.16662 -1.11531,0.15856 -1.64475,-0.02419l-16.52006,-5.59538c-0.94869,-0.31981 -1.63669,-1.1395 -1.79525,-2.1285l-1.19325,-7.58144zM107.49731,147.29113c-1.1825,0 -2.26825,-0.78744 -2.59075,-1.98337c-0.38969,-1.43244 0.45688,-2.90788 1.88931,-3.29756l5.375,-1.45663c1.43512,-0.39238 2.91056,0.45687 3.29756,1.88931c0.38969,1.43244 -0.45687,2.90787 -1.88931,3.29756l-5.375,1.45663c-0.2365,0.0645 -0.473,0.09406 -0.70681,0.09406zM86.0645,153.19556l-14.23838,-4.042c-1.42706,-0.40312 -2.2575,-1.892 -1.849,-3.31906c0.40313,-1.42706 1.88394,-2.26288 3.31906,-1.849l12.80056,3.6335l9.94912,-2.69288c1.43512,-0.39775 2.91056,0.45687 3.29756,1.88931c0.38969,1.43244 -0.45688,2.91056 -1.88931,3.29756z" fill="#8d6c9f"></path><path d="M135.71875,61.8125l3.32712,6.07913l6.07913,3.32712l-6.07913,3.32712l-3.32712,6.07913l-3.32712,-6.07913l-6.07913,-3.32712l6.07913,-3.32712zM127.66163,126.3125l2.35425,4.32688l4.35913,2.39725l-4.35913,2.35425l-2.35425,4.35913l-2.39725,-4.35913l-4.32688,-2.35425l4.32688,-2.39725zM33.58838,94.0625l1.42169,2.58538l2.58537,1.4405l-2.58537,1.42169l-1.42169,2.61494l-1.4405,-2.61494l-2.58537,-1.42169l2.58537,-1.4405z" fill="#faefde"></path></g></g></svg>