<svg xmlns="http://www.w3.org/2000/svg" x="0px" y="0px"
width="100" height="100"
viewBox="0 0 172 172"
style=" fill:#000000;"><g fill="none" fill-rule="nonzero" stroke="none" stroke-width="1" stroke-linecap="butt" stroke-linejoin="miter" stroke-miterlimit="10" stroke-dasharray="" stroke-dashoffset="0" font-family="none" font-weight="none" font-size="none" text-anchor="none" style="mix-blend-mode: normal"><path d="M0,172v-172h172v172z" fill="none"></path><g><path d="M152.57088,96.19788c0.516,-1.05952 0.97352,-2.17408 1.36912,-3.34196c4.52876,-13.3644 -2.32028,-29.37416 -16.74076,-33.239c-1.56004,-19.57876 -15.32004,-33.01024 -30.85852,-35.303c-17.78652,-2.623 -34.0818,8.67568 -39.50152,26.6342c-6.53428,-2.31512 -12.90172,-2.03304 -18.9028,1.47404c-2.72276,1.25904 -5.21332,3.11664 -7.4476,5.56076c-3.28004,3.58792 -5.41284,8.11668 -6.28144,12.8914c-1.28656,0.20296 -2.55076,0.40592 -3.74272,0.83248c-6.9488,2.49228 -11.33308,7.62132 -12.53536,15.34756c-0.7482,4.81084 0.76196,9.60964 1.60476,11.54808c3.3282,7.6626 11.04584,12.0056 18.88732,10.85664c0.39044,-0.05676 0.95804,0.11868 1.29344,0.40076c0.41452,12.2464 6.36056,23.07724 15.28048,29.26408c14.31212,9.92956 32.72472,6.86968 44.3416,-6.7424c4.97768,5.0912 10.90136,7.56456 17.86048,6.66672c6.91956,-0.89268 12.29284,-4.71108 16.21272,-10.92028c1.81116,0.48676 3.52772,1.18852 5.30276,1.38288c6.95224,0.76024 12.59728,-2.0038 16.73904,-8.256c1.58584,-2.39252 3.08396,-5.49368 3.08396,-10.92888c0.00344,-5.60204 -2.22224,-10.70528 -5.96496,-14.12808z" fill="#3498db"></path><path d="M31.59468,82.4998h-17.25332c-0.47472,0 -0.86,-0.38528 -0.86,-0.86c0,-0.47472 0.38528,-0.86 0.86,-0.86h17.2516c0.47472,0 0.86,0.38528 0.86,0.86c0,0.47472 -0.38356,0.86 -0.85828,0.86zM36.54828,82.4998h-2.48712c-0.47472,0 -0.86,-0.38528 -0.86,-0.86c0,-0.47472 0.38528,-0.86 0.86,-0.86h2.48712c0.47472,0 0.86,0.38528 0.86,0.86c0,0.47472 -0.38356,0.86 -0.86,0.86zM43.52288,82.4998h-4.37912c-0.47472,0 -0.86,-0.38528 -0.86,-0.86c0,-0.47472 0.38528,-0.86 0.86,-0.86h4.37912c0.47472,0 0.86,0.38528 0.86,0.86c0,0.47472 -0.38528,0.86 -0.86,0.86zM43.52288,85.7076h-16.53952c-0.47472,0 -0.86,-0.38528 -0.86,-0.86c0,-0.47472 0.38528,-0.86 0.86,-0.86h16.53952c0.47472,0 0.86,0.38528 0.86,0.86c0,0.47472 -0.38528,0.86 -0.86,0.86zM24.00432,85.7076h-0.9976c-0.47472,0 -0.86,-0.38528 -0.86,-0.86c0,-0.47472 0.38528,-0.86 0.86,-0.86h0.9976c0.47472,0 0.86,0.38528 0.86,0.86c0,0.47472 -0.38356,0.86 -0.86,0.86zM19.91588,85.7076h-2.50432c-0.47472,0 -0.86,-0.38528 -0.86,-0.86c0,-0.47472 0.38528,-0.86 0.86,-0.86h2.50432c0.47472,0 0.86,0.38528 0.86,0.86c0,0.47472 -0.38356,0.86 -0.86,0.86zM35.6298,79.292h-8.64644c-0.47472,0 -0.86,-0.38528 -0.86,-0.86c0,-0.47472 0.38528,-0.86 0.86,-0.86h8.64644c0.47472,0 0.86,0.38528 0.86,0.86c0,0.47472 -0.38356,0.86 -0.86,0.86zM35.6298,76.0842h-2.16204c-0.47472,0 -0.86,-0.38528 -0.86,-0.86c0,-0.47472 0.38528,-0.86 0.86,-0.86h2.16204c0.47472,0 0.86,0.38528 0.86,0.86c0,0.47472 -0.38356,0.86 -0.86,0.86zM30.00884,88.9154h-3.02548c-0.47472,0 -0.86,-0.38528 -0.86,-0.86c0,-0.47472 0.38528,-0.86 0.86,-0.86h3.02548c0.47472,0 0.86,0.38528 0.86,0.86c0,0.47472 -0.38528,0.86 -0.86,0.86zM127.95768,44.10768h-17.2516c-0.47472,0 -0.86,-0.38528 -0.86,-0.86c0,-0.47472 0.38528,-0.86 0.86,-0.86h17.2516c0.47472,0 0.86,0.38528 0.86,0.86c0,0.47472 -0.38356,0.86 -0.86,0.86zM132.91472,44.10768h-2.48712c-0.47472,0 -0.86,-0.38528 -0.86,-0.86c0,-0.47472 0.38528,-0.86 0.86,-0.86h2.48712c0.47472,0 0.86,0.38528 0.86,0.86c0,0.47472 -0.38528,0.86 -0.86,0.86zM139.8876,44.10768h-4.37912c-0.47472,0 -0.86,-0.38528 -0.86,-0.86c0,-0.47472 0.38528,-0.86 0.86,-0.86h4.37912c0.47472,0 0.86,0.38528 0.86,0.86c0,0.47472 -0.38528,0.86 -0.86,0.86zM139.8876,47.31548h-16.53952c-0.47472,0 -0.86,-0.38528 -0.86,-0.86c0,-0.47472 0.38528,-0.86 0.86,-0.86h16.53952c0.47472,0 0.86,0.38528 0.86,0.86c0,0.47472 -0.38528,0.86 -0.86,0.86zM120.36904,47.31548h-0.9976c-0.47472,0 -0.86,-0.38528 -0.86,-0.86c0,-0.47472 0.38528,-0.86 0.86,-0.86h0.9976c0.47472,0 0.86,0.38528 0.86,0.86c0,0.47472 -0.38356,0.86 -0.86,0.86zM116.2806,47.31548h-2.50432c-0.47472,0 -0.86,-0.38528 -0.86,-0.86c0,-0.47472 0.38528,-0.86 0.86,-0.86h2.50432c0.47472,0 0.86,0.38528 0.86,0.86c0,0.47472 -0.38356,0.86 -0.86,0.86zM131.99452,40.9016h-8.64644c-0.47472,0 -0.86,-0.38528 -0.86,-0.86c0,-0.47472 0.38528,-0.86 0.86,-0.86h8.64644c0.47472,0 0.86,0.38528 0.86,0.86c0,0.47472 -0.38528,0.86 -0.86,0.86zM131.99452,37.69208h-2.16204c-0.47472,0 -0.86,-0.38528 -0.86,-0.86c0,-0.47472 0.38528,-0.86 0.86,-0.86h2.16204c0.47472,0 0.86,0.38528 0.86,0.86c0,0.47472 -0.38528,0.86 -0.86,0.86zM126.37356,50.52328h-3.02548c-0.47472,0 -0.86,-0.38528 -0.86,-0.86c0,-0.47472 0.38528,-0.86 0.86,-0.86h3.02548c0.47472,0 0.86,0.38528 0.86,0.86c0,0.47472 -0.38528,0.86 -0.86,0.86z" fill="#ffffff"></path><path d="M128.9398,83.93256c0,0 18.25952,0 18.37132,0c4.21744,0 7.63508,-3.41764 7.63508,-7.63508c0,-3.67908 -2.60236,-6.74928 -6.06644,-7.47168c0.03956,-0.32164 0.06708,-0.64844 0.06708,-0.9804c0,-4.36708 -3.53976,-7.90856 -7.90684,-7.90856c-2.57828,0 -4.86244,1.24012 -6.30552,3.14932c-0.3698,-4.86072 -4.71108,-8.61204 -9.79196,-7.99112c-3.7152,0.45408 -6.78884,3.32648 -7.47168,7.00556c-0.21844,1.17992 -0.19608,2.32544 0.02236,3.40044c-0.99588,-1.07328 -2.41316,-1.74752 -3.99384,-1.74752c-2.8896,0 -5.24944,2.24976 -5.4352,5.09292c-1.31236,-0.29068 -2.73996,-0.27176 -4.24324,0.2924c-2.87412,1.07844 -4.92092,3.784 -5.0396,6.85076c-0.17028,4.35676 3.311,7.94124 7.6282,7.94124c0.32852,0 1.48092,0 1.7458,0h15.85496" fill="#fdfcef"></path><path d="M147.31112,84.79256h-18.37132c-0.47472,0 -0.86,-0.38528 -0.86,-0.86c0,-0.47472 0.38528,-0.86 0.86,-0.86h18.37132c3.73584,0 6.77508,-3.03924 6.77508,-6.77508c0,-3.1906 -2.26352,-5.98044 -5.38188,-6.6306c-0.43688,-0.09116 -0.731,-0.50224 -0.67768,-0.946c0.03612,-0.28724 0.0602,-0.57792 0.0602,-0.87548c0,-3.88548 -3.16136,-7.04856 -7.04856,-7.04856c-2.22224,0 -4.27076,1.0234 -5.61924,2.80876c-0.215,0.28724 -0.58308,0.4128 -0.9288,0.30616c-0.34228,-0.10148 -0.58824,-0.40248 -0.61404,-0.76024c-0.16168,-2.12936 -1.204,-4.12972 -2.86036,-5.4868c-1.67356,-1.37256 -3.79604,-1.978 -5.97012,-1.71484c-3.34884,0.40936 -6.11632,3.00484 -6.73036,6.30896c-0.19264,1.03372 -0.18576,2.06572 0.01892,3.07192c0.0774,0.3784 -0.10664,0.76024 -0.44892,0.9374c-0.34056,0.17716 -0.76196,0.1032 -1.0234,-0.17888c-0.88236,-0.94944 -2.07776,-1.47232 -3.36432,-1.47232c-2.408,0 -4.41868,1.8834 -4.57692,4.28968c-0.0172,0.25112 -0.14104,0.4816 -0.34228,0.63124c-0.20124,0.14964 -0.45924,0.20296 -0.70176,0.15136c-1.29688,-0.28552 -2.52496,-0.20124 -3.75476,0.258c-2.57828,0.96664 -4.37912,3.41076 -4.48232,6.0802c-0.07224,1.86276 0.59684,3.62748 1.88512,4.96908c1.29,1.3416 3.02376,2.07948 4.88308,2.07948h17.60076c0.47472,0 0.86,0.38528 0.86,0.86c0,0.47472 -0.38528,0.86 -0.86,0.86h-17.59904c-2.3306,0 -4.5064,-0.92708 -6.1232,-2.60752c-1.61508,-1.68216 -2.45616,-3.89236 -2.365,-6.22812c0.13072,-3.35056 2.37876,-6.41388 5.59688,-7.62304c1.24012,-0.4644 2.5198,-0.62436 3.82012,-0.47988c0.62264,-2.8466 3.16824,-4.96048 6.16104,-4.96048c1.03716,0 2.05368,0.25972 2.9584,0.74132c0.00688,-0.56244 0.06192,-1.1266 0.16684,-1.69076c0.74992,-4.03512 4.12628,-7.20336 8.213,-7.70216c2.64192,-0.33196 5.22708,0.41796 7.26872,2.09152c1.54628,1.26764 2.65396,2.99624 3.17684,4.90372c1.58068,-1.38976 3.6034,-2.16032 5.75684,-2.16032c4.83492,0 8.76856,3.93364 8.76856,8.76856c0,0.11008 -0.00172,0.22016 -0.00688,0.33024c3.52256,1.08016 6.00624,4.38084 6.00624,8.12356c-0.00172,4.6784 -3.81324,8.48992 -8.4968,8.48992z" fill="#472b29"></path><path d="M124.51424,67.11268c-2.82424,-0.18576 -5.2546,1.76472 -5.43004,4.35676c-0.02236,0.32164 -0.00688,0.63812 0.03956,0.946c-0.54524,-0.61576 -1.35192,-1.032 -2.27728,-1.09392c-1.6942,-0.1118 -3.15792,1.00792 -3.36948,2.53012c-0.30788,-0.08428 -0.62952,-0.14104 -0.9632,-0.1634c-2.47164,-0.16168 -4.59928,1.54456 -4.75064,3.81152" fill="#fdfcef"></path><path d="M107.76488,77.93148c-0.01032,0 -0.02064,0 -0.02924,0c-0.23736,-0.01548 -0.41624,-0.22016 -0.40076,-0.45752c0.17028,-2.49916 2.48712,-4.37396 5.20816,-4.21228c0.20124,0.01376 0.4042,0.03784 0.60716,0.07568c0.4472,-1.51016 1.99176,-2.56624 3.72552,-2.4424c0.63812,0.04128 1.25216,0.24252 1.77848,0.57104c0,-0.0086 0.00172,-0.01548 0.00172,-0.02408c0.1892,-2.82252 2.83112,-4.93296 5.88756,-4.7558c0.23736,0.01548 0.41624,0.22016 0.40076,0.45752c-0.01548,0.23736 -0.215,0.41452 -0.45752,0.40076c-2.60236,-0.17716 -4.81428,1.60476 -4.97252,3.956c-0.01892,0.28208 -0.00688,0.56932 0.03612,0.85484c0.02924,0.18748 -0.07052,0.37324 -0.24424,0.45408c-0.17028,0.08084 -0.37668,0.03956 -0.50396,-0.10492c-0.48848,-0.55212 -1.21088,-0.89784 -1.98144,-0.94944c-1.46544,-0.09632 -2.7348,0.85312 -2.9154,2.16032c-0.0172,0.12212 -0.086,0.23048 -0.1892,0.29928c-0.10492,0.0688 -0.23048,0.08944 -0.35088,0.05676c-0.2924,-0.07912 -0.58824,-0.129 -0.8772,-0.14792c-2.23256,-0.14276 -4.15724,1.3846 -4.29484,3.41076c-0.01548,0.2236 -0.20296,0.39732 -0.42828,0.39732z" fill="#472b29"></path><path d="M150.40196,69.7202c-2.65396,-1.25044 -5.72244,-0.36636 -6.8542,1.978c-0.14104,0.29068 -0.24424,0.59168 -0.31304,0.89612" fill="#fdfcef"></path><path d="M143.233,73.02432c-0.03096,0 -0.06364,-0.00344 -0.09632,-0.01032c-0.2322,-0.05332 -0.37668,-0.2838 -0.32336,-0.51428c0.0774,-0.34228 0.19436,-0.67596 0.34572,-0.98728c1.23152,-2.55248 4.5666,-3.52772 7.42524,-2.17924c0.215,0.10148 0.30788,0.35776 0.2064,0.57276c-0.10148,0.215 -0.35776,0.30616 -0.57276,0.2064c-2.43724,-1.14896 -5.25632,-0.3526 -6.28488,1.77676c-0.12384,0.25456 -0.21844,0.5246 -0.28208,0.80496c-0.043,0.19436 -0.22016,0.33024 -0.41796,0.33024z" fill="#472b29"></path><path d="M112.2472,120.78872h-44.24184c-6.47752,0 -11.77684,-5.29932 -11.77684,-11.77684v-44.24184c0,-6.47752 5.29932,-11.77684 11.77684,-11.77684h44.24184c6.47752,0 11.77684,5.29932 11.77684,11.77684v44.24184c0.00172,6.47752 -5.29932,11.77684 -11.77684,11.77684z" fill="#006def"></path><path d="M112.2472,121.99272h-44.24184c-7.15864,0 -12.98084,-5.82392 -12.98084,-12.98084v-44.24184c0,-7.15864 5.82392,-12.98084 12.98084,-12.98084h44.24184c7.15864,0 12.98256,5.82392 12.98256,12.98084v44.24184c0,7.15864 -5.82392,12.98084 -12.98256,12.98084zM68.00536,54.1972c-5.8308,0 -10.57284,4.74204 -10.57284,10.57284v44.24184c0,5.8308 4.74204,10.57284 10.57284,10.57284h44.24184c5.8308,0 10.57284,-4.74204 10.57284,-10.57284v-44.24184c0,-5.8308 -4.74376,-10.57284 -10.57284,-10.57284z" fill="#472b29"></path><path d="M109.63796,115.94692h-39.02336c-5.24944,0 -9.54428,-4.29484 -9.54428,-9.54428v-39.02336c0,-5.24944 4.29484,-9.54428 9.54428,-9.54428h39.02336c5.24944,0 9.54428,4.29484 9.54428,9.54428v39.02336c0,5.24944 -4.29484,9.54428 -9.54428,9.54428z" fill="#fdfcee"></path><path d="M110.35176,116.54892h-40.45096c-5.20128,0 -9.43248,-4.2312 -9.43248,-9.43248v-40.45096c0,-5.20128 4.2312,-9.43248 9.43248,-9.43248h38.5194c0.33196,0 0.602,0.27004 0.602,0.602c0,0.33196 -0.27004,0.602 -0.602,0.602h-38.5194c-4.53736,0 -8.22848,3.69112 -8.22848,8.22848v40.44924c0,4.53736 3.69112,8.22848 8.22848,8.22848h40.45096c4.53736,0 8.22848,-3.69112 8.22848,-8.22848v-22.3772c0,-0.33196 0.27004,-0.602 0.602,-0.602c0.33196,0 0.602,0.27004 0.602,0.602v22.3772c0,5.203 -4.2312,9.4342 -9.43248,9.4342z" fill="#472b29"></path><path d="M119.18224,82.1128c-0.33196,0 -0.602,-0.27004 -0.602,-0.602v-4.30516c0,-0.33196 0.27004,-0.602 0.602,-0.602c0.33196,0 0.602,0.27004 0.602,0.602v4.30516c0,0.33196 -0.27004,0.602 -0.602,0.602zM119.18224,75.65592c-0.33196,0 -0.602,-0.27004 -0.602,-0.602v-2.15172c0,-0.33196 0.27004,-0.602 0.602,-0.602c0.33196,0 0.602,0.27004 0.602,0.602v2.15172c0,0.33196 -0.27004,0.602 -0.602,0.602z" fill="#472b29"></path><path d="M105.76968,89.90096v10.449h-6.15932l-0.086,-10.35956c0,-2.623 -1.19368,-4.48748 -3.54836,-4.48748c-1.7974,0 -2.86208,1.20228 -3.33336,2.37016c-0.16856,0.41452 -0.21844,0.99932 -0.21844,1.5824v10.89448h-6.23844c0,0 0.08428,-17.67472 0,-19.50308h6.23844v3.01c-0.01376,0.02236 -0.02752,0.04644 -0.043,0.0688h0.043v-0.0688c0.86688,-1.44824 2.44928,-3.13384 5.90476,-3.13384c4.28108,-0.0086 7.44072,2.65912 7.44072,9.17792zM79.09936,71.65004c-1.9264,0 -3.18372,1.32096 -3.18372,3.05816c0,1.69764 1.21948,3.05816 3.10976,3.05816h0.03612c1.96424,0 3.18372,-1.36052 3.18372,-3.05816c-0.04128,-1.73548 -1.22464,-3.05816 -3.14588,-3.05816zM76.00164,100.34996h6.15932v-19.50308h-6.15932z" fill="#127ad8"></path><path d="M105.76968,100.95196h-6.15932c-0.33024,0 -0.60028,-0.2666 -0.602,-0.59684l-0.08428,-10.35956c0,-1.17304 -0.28724,-3.89064 -2.94636,-3.89064c-1.77676,0 -2.53356,1.39492 -2.77436,1.99348c-0.11696,0.2838 -0.17544,0.7396 -0.17544,1.35708v10.89448c0,0.33196 -0.27004,0.602 -0.602,0.602h-6.23844c-0.15996,0 -0.31476,-0.06364 -0.42656,-0.17716c-0.11352,-0.11352 -0.17716,-0.26832 -0.17544,-0.42828c0,-0.17716 0.08256,-17.6816 0,-19.47384c-0.00688,-0.16512 0.0516,-0.32336 0.16684,-0.44376c0.11352,-0.11868 0.27004,-0.18576 0.43516,-0.18576h6.23844c0.33196,0 0.602,0.27004 0.602,0.602v1.247c1.31752,-1.3244 3.06676,-1.97284 5.30276,-1.97284c0.00688,0 0.01376,0 0.01892,0c2.2704,0 4.1194,0.69488 5.49024,2.064c1.68044,1.677 2.53184,4.2742 2.53184,7.71592v10.449c0.00172,0.33368 -0.26832,0.60372 -0.602,0.60372zM100.20892,99.74796h4.96048v-9.847c0,-3.11148 -0.73272,-5.42144 -2.17924,-6.86452c-1.13864,-1.13692 -2.7004,-1.71312 -4.64056,-1.71312c-0.00516,0 -0.01204,0 -0.0172,0c-3.24908,0 -4.61132,1.56864 -5.35092,2.77952c-0.172,0.4386 -0.87204,0.52288 -1.09908,0.11696c-0.08944,-0.15996 -0.11696,-0.34916 -0.05676,-0.51428v-2.25836h-5.01896c0.0516,3.225 0,15.38884 -0.01204,18.29908h5.031v-10.29248c0,-0.78604 0.086,-1.37772 0.26316,-1.80944c0.69316,-1.71828 2.15,-2.74512 3.89064,-2.74512c2.55936,0 4.15036,1.95048 4.15036,5.08948zM82.16096,100.95196h-6.15932c-0.33196,0 -0.602,-0.27004 -0.602,-0.602v-19.50308c0,-0.33196 0.27004,-0.602 0.602,-0.602h6.15932c0.33196,0 0.602,0.27004 0.602,0.602v19.50308c0,0.33196 -0.27004,0.602 -0.602,0.602zM76.60364,99.74796h4.9536v-18.29908h-4.9536zM79.06324,78.36836c-2.18784,0 -3.7496,-1.5394 -3.7496,-3.66016c0,-2.12076 1.59272,-3.66016 3.78572,-3.66016c2.15344,0 3.69628,1.49984 3.7496,3.64468c0,2.13624 -1.59272,3.67564 -3.78572,3.67564zM79.09936,72.25376c-1.54284,0 -2.58,0.98728 -2.58,2.45616c0,1.44652 1.032,2.45616 2.50776,2.45616c1.58068,0 2.61784,-0.98728 2.61784,-2.45616c-0.03784,-1.48608 -1.03544,-2.45616 -2.5456,-2.45616z" fill="#472b29"></path><path d="M72.45672,125.11108c2.9412,0 5.49368,0 5.5298,0c3.29552,0 5.96668,-2.6144 5.96668,-5.84112c0,-2.81392 -2.03304,-5.16172 -4.74032,-5.71556c0.03096,-0.24596 0.05332,-0.49536 0.05332,-0.74992c0,-3.34024 -2.76748,-6.04924 -6.17996,-6.04924c-2.01584,0 -3.79948,0.94772 -4.9278,2.40972c-0.28896,-3.71864 -3.68252,-6.5876 -7.654,-6.11288c-2.90336,0.34744 -5.30448,2.54388 -5.8394,5.35952c-0.172,0.903 -0.15308,1.77848 0.0172,2.60064c-0.77916,-0.82044 -1.88684,-1.33644 -3.12008,-1.33644c-2.25836,0 -4.1022,1.72172 -4.2484,3.8958c-1.02512,-0.22188 -2.1414,-0.20812 -3.31616,0.2236c-2.24632,0.8256 -3.84592,2.89476 -3.9388,5.24084c-0.13244,3.33164 2.58688,6.07504 5.96324,6.07504c0.25628,0 1.15756,0 1.36568,0h12.39088M62.3414,125.11108h0.56244" fill="#fdfcef"></path><path d="M77.98652,125.97108h-5.5298c-0.47472,0 -0.86,-0.38528 -0.86,-0.86c0,-0.47472 0.38528,-0.86 0.86,-0.86h5.5298c2.81564,0 5.10668,-2.23428 5.10668,-4.98112c0,-2.34264 -1.70452,-4.39288 -4.05232,-4.87276c-0.44032,-0.08944 -0.73788,-0.50396 -0.68112,-0.94944c0.02752,-0.21156 0.04472,-0.42484 0.04472,-0.64328c0,-2.86208 -2.38564,-5.18924 -5.31996,-5.18924c-1.68216,0 -3.22844,0.75508 -4.2484,2.07432c-0.21672,0.28036 -0.5848,0.39904 -0.92708,0.29756c-0.34056,-0.10148 -0.58308,-0.40248 -0.6106,-0.7568c-0.12212,-1.57036 -0.87204,-2.99452 -2.11044,-4.01104c-1.27796,-1.04748 -2.90164,-1.51704 -4.5838,-1.31408c-2.537,0.30272 -4.63368,2.22224 -5.09636,4.66464c-0.14448,0.76196 -0.14104,1.52392 0.01376,2.26696c0.0774,0.37668 -0.1032,0.75852 -0.44376,0.9374c-0.33884,0.17716 -0.7568,0.10836 -1.02168,-0.172c-0.6536,-0.688 -1.54112,-1.06812 -2.49744,-1.06812c-1.78536,0 -3.27316,1.3588 -3.39012,3.09428c-0.0172,0.2494 -0.14104,0.47816 -0.34056,0.62952c-0.19952,0.15136 -0.45236,0.2064 -0.70004,0.15308c-0.97868,-0.21156 -1.90748,-0.14964 -2.83628,0.1892c-1.94016,0.7138 -3.29724,2.50948 -3.37636,4.46856c-0.05332,1.34504 0.43516,2.62472 1.376,3.6034c0.97696,1.01652 2.29964,1.57552 3.72724,1.57552h13.75656c0.47472,0 0.86,0.38528 0.86,0.86c0,0.47472 -0.38528,0.86 -0.86,0.86h-13.75656c-1.87136,0 -3.68252,-0.76712 -4.96736,-2.10356c-1.26764,-1.31924 -1.9264,-3.04612 -1.85416,-4.86416c0.10664,-2.64708 1.91608,-5.06368 4.50296,-6.01484c0.94428,-0.34572 1.92124,-0.47472 2.90336,-0.39216c0.57104,-2.18096 2.59204,-3.78056 4.95704,-3.78056c0.74132,0 1.46888,0.16168 2.13452,0.46268c0.01892,-0.34228 0.0602,-0.68456 0.12556,-1.02684c0.602,-3.17168 3.30928,-5.66052 6.58244,-6.05268c2.1414,-0.25628 4.23464,0.344 5.87724,1.69076c1.14896,0.94256 1.97284,2.1586 2.40628,3.52256c1.23324,-0.97696 2.7692,-1.51704 4.39804,-1.51704c3.88204,0 7.03996,3.09944 7.03996,6.90924c0,0.0344 0,0.0688 0,0.1032c2.75888,0.8944 4.69044,3.46064 4.69044,6.364c-0.00172,3.69628 -3.06332,6.70284 -6.8284,6.70284zM62.90212,125.97108h-0.56244c-0.47472,0 -0.86,-0.38528 -0.86,-0.86c0,-0.47472 0.38528,-0.86 0.86,-0.86h0.56244c0.47472,0 0.86,0.38528 0.86,0.86c0,0.47472 -0.38356,0.86 -0.86,0.86z" fill="#472b29"></path><path d="M75.3188,116.86884c-0.03096,0 -0.06192,-0.00344 -0.0946,-0.01032c-0.2322,-0.0516 -0.37668,-0.28208 -0.32508,-0.51428c0.05848,-0.26144 0.14792,-0.516 0.26832,-0.7568c0.95288,-1.93156 3.58448,-2.64536 5.8652,-1.591c0.215,0.09976 0.3096,0.35604 0.20984,0.57104c-0.09976,0.21672 -0.35604,0.30788 -0.57104,0.20984c-1.85932,-0.85828 -3.98352,-0.32508 -4.73344,1.19024c-0.08772,0.17888 -0.1548,0.36808 -0.19952,0.56416c-0.04472,0.19952 -0.22188,0.33712 -0.41968,0.33712zM67.26232,125.97108h-1.73032c-0.47472,0 -0.86,-0.38528 -0.86,-0.86c0,-0.47472 0.38528,-0.86 0.86,-0.86h1.7286c0.47472,0 0.86,0.38528 0.86,0.86c0,0.47472 -0.38356,0.86 -0.85828,0.86z" fill="#472b29"></path></g></g></svg>