<svg xmlns="http://www.w3.org/2000/svg" x="0px" y="0px"
width="100" height="100"
viewBox="0 0 172 172"
style=" fill:#000000;"><g fill="none" fill-rule="nonzero" stroke="none" stroke-width="1" stroke-linecap="butt" stroke-linejoin="miter" stroke-miterlimit="10" stroke-dasharray="" stroke-dashoffset="0" font-family="none" font-weight="none" font-size="none" text-anchor="none" style="mix-blend-mode: normal"><path d="M0,172v-172h172v172z" fill="none"></path><g><path d="M149.984,95.632c0.516,-1.032 1.032,-2.236 1.376,-3.268c4.472,-13.416 -2.236,-29.412 -16.684,-33.196c-1.548,-19.608 -15.308,-33.024 -30.788,-35.26c-17.716,-2.58 -34.056,8.6 -39.56,26.66c-6.536,-2.236 -12.9,-2.064 -18.92,1.548c-2.752,1.204 -5.16,3.096 -7.396,5.504c-3.268,3.612 -5.332,8.084 -6.364,12.9c-1.204,0.172 -2.58,0.344 -3.784,0.86c-6.88,2.408 -11.352,7.568 -12.556,15.308c-0.688,4.816 0.688,9.632 1.548,11.524c3.268,7.74 11.008,12.04 18.92,10.836c0.344,0 1.032,0.172 1.376,0.344c0.344,12.212 6.364,23.048 15.308,29.24c14.276,9.976 32.68,6.88 44.376,-6.708c4.988,5.16 10.836,7.568 17.888,6.708c6.88,-0.86 12.212,-4.644 16.168,-10.836c1.892,0.516 3.612,1.204 5.332,1.376c6.88,0.688 12.556,-2.064 16.684,-8.256c0.172,-0.172 0.344,-0.344 0.516,-0.516c0.516,-1.376 1.204,-2.752 1.72,-4.128c0.344,-2.064 0.688,-4.128 0.688,-6.192c0.172,-6.02 -2.064,-11.18 -5.848,-14.448z" fill="#3498db"></path><path d="M71.036,59.168c0,0 20.124,0 20.296,0c4.644,0 8.428,-3.784 8.428,-8.428c0,-4.128 -2.924,-7.396 -6.708,-8.256c0,-0.344 0,-0.688 0,-1.032c0,-4.816 -3.956,-8.772 -8.772,-8.772c-2.924,0 -5.332,1.376 -6.88,3.44c-0.344,-5.332 -5.16,-9.46 -10.836,-8.772c-4.128,0.516 -7.396,3.612 -8.256,7.74c-0.172,1.376 -0.172,2.58 0,3.784c-1.032,-1.204 -2.58,-1.892 -4.472,-1.892c-3.268,0 -5.848,2.408 -6.02,5.676c-1.376,-0.344 -3.096,-0.344 -4.644,0.344c-3.096,1.204 -5.332,4.128 -5.504,7.568c-0.172,4.816 3.612,8.772 8.428,8.772c0.344,0 1.548,0 1.892,0h17.544" fill="#fdfcef"></path><path d="M91.332,60.028h-20.296c-0.516,0 -0.86,-0.344 -0.86,-0.86c0,-0.516 0.344,-0.86 0.86,-0.86h20.296c4.128,0 7.568,-3.44 7.568,-7.568c0,-3.612 -2.58,-6.708 -6.02,-7.396c-0.516,-0.172 -0.688,-0.516 -0.688,-1.032c0,-0.344 0,-0.688 0,-1.032c0,-4.3 -3.44,-7.912 -7.912,-7.912c-2.408,0 -4.816,1.204 -6.192,3.096c-0.172,0.344 -0.516,0.344 -0.86,0.344c-0.344,-0.172 -0.516,-0.344 -0.688,-0.688c-0.172,-2.408 -1.376,-4.644 -3.096,-6.02c-1.892,-1.548 -4.3,-2.236 -6.708,-1.892c-3.784,0.516 -6.88,3.268 -7.568,7.052c-0.172,1.204 -0.172,2.236 0,3.44c0,0.344 -0.172,0.688 -0.516,0.86c-0.344,0.172 -0.688,0.172 -1.032,-0.172c-1.032,-1.032 -2.408,-1.72 -3.784,-1.72c-2.752,0 -4.988,2.064 -5.16,4.816c0,0.172 -0.172,0.516 -0.344,0.688c-0.172,0.172 -0.516,0.172 -0.688,0.172c-1.376,-0.344 -2.752,-0.172 -4.128,0.344c-2.924,1.032 -4.816,3.784 -4.988,6.708c0,2.064 0.688,4.128 2.064,5.504c1.376,1.548 3.44,2.236 5.504,2.236h19.436c0.516,0 0.86,0.344 0.86,0.86c0,0.516 -0.344,0.86 -0.86,0.86h-19.264c-2.58,0 -4.988,-1.032 -6.708,-2.924c-1.72,-1.892 -2.752,-4.3 -2.58,-6.88c0.172,-3.612 2.58,-7.052 6.02,-8.256c1.376,-0.516 2.752,-0.688 4.3,-0.516c0.688,-3.096 3.44,-5.504 6.708,-5.504c1.204,0 2.408,0.344 3.268,0.86c0,-0.688 0,-1.376 0.172,-2.064c0.86,-4.472 4.472,-7.912 8.944,-8.428c2.924,-0.344 5.676,0.516 7.912,2.236c1.72,1.376 2.924,3.44 3.44,5.504c1.72,-1.548 3.956,-2.408 6.364,-2.408c5.332,0 9.632,4.3 9.632,9.632c0,0.172 0,0.344 0,0.344c3.956,1.204 6.536,4.816 6.536,8.944c0.344,5.504 -3.784,9.632 -8.944,9.632z" fill="#472b29"></path><path d="M66.22,40.764c-3.096,-0.172 -5.848,1.892 -6.02,4.816c0,0.344 0,0.688 0,1.032c-0.516,-0.688 -1.548,-1.204 -2.58,-1.204c-1.892,-0.172 -3.44,1.032 -3.784,2.752c-0.344,-0.172 -0.688,-0.172 -1.032,-0.172c-2.752,-0.172 -4.988,1.72 -5.16,4.128" fill="#fdfcef"></path><path d="M47.816,52.632v0c-0.344,0 -0.516,-0.172 -0.516,-0.516c0.172,-2.752 2.752,-4.816 5.676,-4.644c0.172,0 0.516,0 0.688,0.172c0.516,-1.72 2.236,-2.752 4.128,-2.752c0.688,0 1.376,0.344 2.064,0.688c0,0 0,0 0,-0.172c0.172,-3.096 3.096,-5.504 6.364,-5.16c0.172,0 0.344,0.172 0.344,0.516c0,0.344 -0.172,0.516 -0.516,0.344c-2.924,-0.172 -5.332,1.72 -5.504,4.472c0,0.344 0,0.688 0,1.032c0,0.172 0,0.344 -0.172,0.516c-0.172,0.172 -0.344,0 -0.516,-0.172c-0.516,-0.688 -1.376,-1.032 -2.236,-1.032c-1.72,0 -3.096,1.032 -3.268,2.408c0,0.172 0,0.172 -0.172,0.344c-0.172,0 -0.172,0.172 -0.344,0c-0.344,-0.172 -0.688,-0.172 -1.032,-0.172c-2.236,-0.344 -4.472,1.376 -4.644,3.612c0,0.344 -0.172,0.516 -0.344,0.516z" fill="#472b29"></path><path d="M94.772,43.516c-2.924,-1.376 -6.364,-0.344 -7.568,2.236c-0.172,0.344 -0.344,0.688 -0.344,1.032" fill="#fdfcef"></path><path d="M86.86,47.128v0c-0.344,0 -0.516,-0.344 -0.344,-0.516c0,-0.344 0.172,-0.688 0.344,-1.032c1.376,-2.752 4.988,-3.784 8.084,-2.408c0.172,0.172 0.344,0.344 0.172,0.516c-0.172,0.172 -0.344,0.344 -0.516,0.172c-2.752,-1.204 -5.848,-0.344 -7.052,1.892c-0.172,0.344 -0.172,0.516 -0.344,0.86c0,0.344 -0.172,0.516 -0.344,0.516z" fill="#472b29"></path><path d="M30.788,98.04h-17.2c-0.516,0 -0.86,-0.344 -0.86,-0.86c0,-0.516 0.344,-0.86 0.86,-0.86h17.2c0.516,0 0.86,0.344 0.86,0.86c0,0.516 -0.344,0.86 -0.86,0.86zM36.636,97.18c0,-0.516 -0.344,-0.86 -0.86,-0.86h-2.408c-0.516,0 -0.86,0.344 -0.86,0.86c0,0.516 0.344,0.86 0.86,0.86h2.408c0.516,0 0.86,-0.344 0.86,-0.86zM43.516,97.18c0,-0.516 -0.344,-0.86 -0.86,-0.86h-4.3c-0.516,0 -0.86,0.344 -0.86,0.86c0,0.516 0.344,0.86 0.86,0.86h4.3c0.516,0 0.86,-0.344 0.86,-0.86zM43.516,100.62c0,-0.516 -0.344,-0.86 -0.86,-0.86h-16.512c-0.516,0 -0.86,0.344 -0.86,0.86c0,0.516 0.344,0.86 0.86,0.86h16.512c0.516,0 0.86,-0.344 0.86,-0.86zM24.08,100.62c0,-0.516 -0.344,-0.86 -0.86,-0.86h-1.032c-0.516,0 -0.86,0.344 -0.86,0.86c0,0.516 0.344,0.86 0.86,0.86h1.032c0.516,0 0.86,-0.344 0.86,-0.86zM19.952,100.62c0,-0.516 -0.344,-0.86 -0.86,-0.86h-2.408c-0.516,0 -0.86,0.344 -0.86,0.86c0,0.516 0.344,0.86 0.86,0.86h2.58c0.344,0 0.688,-0.344 0.688,-0.86zM35.604,93.74c0,-0.516 -0.344,-0.86 -0.86,-0.86h-8.6c-0.516,0 -0.86,0.344 -0.86,0.86c0,0.516 0.344,0.86 0.86,0.86h8.6c0.516,0 0.86,-0.344 0.86,-0.86zM35.604,90.3c0,-0.516 -0.344,-0.86 -0.86,-0.86h-2.064c-0.516,0 -0.86,0.344 -0.86,0.86c0,0.516 0.344,0.86 0.86,0.86h2.236c0.344,0 0.688,-0.344 0.688,-0.86zM30.1,104.06c0,-0.516 -0.344,-0.86 -0.86,-0.86h-3.096c-0.516,0 -0.86,0.344 -0.86,0.86c0,0.516 0.344,0.86 0.86,0.86h3.096c0.516,0 0.86,-0.344 0.86,-0.86z" fill="#ffffff"></path><path d="M123.324,43h-17.2c-0.516,0 -0.86,-0.344 -0.86,-0.86c0,-0.516 0.344,-0.86 0.86,-0.86h17.2c0.516,0 0.86,0.344 0.86,0.86c0,0.516 -0.344,0.86 -0.86,0.86zM129.172,42.14c0,-0.516 -0.344,-0.86 -0.86,-0.86h-2.408c-0.516,0 -0.86,0.344 -0.86,0.86c0,0.516 0.344,0.86 0.86,0.86h2.408c0.516,0 0.86,-0.344 0.86,-0.86zM136.224,42.14c0,-0.516 -0.344,-0.86 -0.86,-0.86h-4.3c-0.516,0 -0.86,0.344 -0.86,0.86c0,0.516 0.344,0.86 0.86,0.86h4.3c0.516,0 0.86,-0.344 0.86,-0.86zM132.784,35.26c0,-0.516 -0.344,-0.86 -0.86,-0.86h-16.684c-0.516,0 -0.86,0.344 -0.86,0.86c0,0.516 0.516,0.86 0.86,0.86h16.512c0.516,0 1.032,-0.344 1.032,-0.86zM113.176,35.26c0,-0.516 -0.344,-0.86 -0.86,-0.86h-1.032c-0.516,0 -0.86,0.344 -0.86,0.86c0,0.516 0.344,0.86 0.86,0.86h1.032c0.516,0 0.86,-0.344 0.86,-0.86zM109.048,35.26c0,-0.516 -0.344,-0.86 -0.86,-0.86h-2.58c-0.516,0 -0.86,0.344 -0.86,0.86c0,0.516 0.344,0.86 0.86,0.86h2.58c0.516,0 0.86,-0.344 0.86,-0.86zM128.312,38.7c0,-0.516 -0.344,-0.86 -0.86,-0.86h-8.6c-0.516,0 -0.86,0.344 -0.86,0.86c0,0.516 0.344,0.86 0.86,0.86h8.6c0.516,0 0.86,-0.344 0.86,-0.86zM128.312,35.26c0,-0.516 -0.344,-0.86 -0.86,-0.86h-2.236c-0.516,0 -0.86,0.344 -0.86,0.86c0,0.516 0.344,0.86 0.86,0.86h2.236c0.516,0 0.86,-0.344 0.86,-0.86zM117.132,38.7c0,-0.516 -0.344,-0.86 -0.86,-0.86h-3.096c-0.516,0 -0.86,0.344 -0.86,0.86c0,0.516 0.344,0.86 0.86,0.86h3.096c0.516,0 0.86,-0.344 0.86,-0.86z" fill="#ffffff"></path><path d="M89.44,108.532c-25.456,0 -44.72,-8.944 -44.72,-20.812c0,-11.868 19.264,-20.812 44.72,-20.812c25.456,0 44.72,8.944 44.72,20.812c0,11.868 -19.264,20.812 -44.72,20.812zM89.44,73.1c-22.876,0 -38.7,7.74 -38.7,14.62c0,6.88 15.996,14.62 38.7,14.62c22.704,0 38.7,-7.74 38.7,-14.62c0,-6.88 -15.824,-14.62 -38.7,-14.62z" fill="#77cbd2"></path><path d="M89.44,109.736c-26.144,0 -45.924,-9.46 -45.924,-22.016c0,-12.556 19.78,-22.016 45.924,-22.016c26.144,0 45.924,9.46 45.924,22.016c0,12.556 -19.78,22.016 -45.924,22.016zM89.44,68.112c-24.424,0 -43.516,8.6 -43.516,19.608c0,11.008 19.092,19.608 43.516,19.608c24.424,0 43.516,-8.6 43.516,-19.608c0,-11.008 -19.092,-19.608 -43.516,-19.608zM89.44,103.544c-23.908,0 -39.904,-8.256 -39.904,-15.824c0,-7.568 15.996,-15.824 39.904,-15.824c23.908,0 39.904,8.256 39.904,15.824c0,7.568 -15.996,15.824 -39.904,15.824zM89.44,74.304c-23.22,0 -37.496,7.74 -37.496,13.416c0,5.676 14.276,13.416 37.496,13.416c23.22,0 37.496,-7.74 37.496,-13.416c0,-5.676 -14.276,-13.416 -37.496,-13.416z" fill="#472b29"></path><path d="M72.756,127.968c-2.064,0 -3.784,-0.516 -5.504,-1.376c-9.804,-5.848 -7.74,-26.832 4.988,-48.848c8.772,-15.48 20.64,-27.176 30.1,-29.584c3.44,-0.86 6.708,-0.688 9.288,0.86c9.804,5.676 7.74,26.66 -4.988,48.848c-8.772,15.48 -20.64,27.176 -30.1,29.584c-1.376,0.344 -2.58,0.516 -3.784,0.516zM106.124,53.492c-0.688,0 -1.548,0.172 -2.236,0.344c-7.912,2.064 -18.576,12.9 -26.488,26.832c-11.008,19.264 -12.9,37.496 -7.052,40.764c1.204,0.688 2.752,0.86 4.816,0.344c7.912,-2.064 18.576,-12.9 26.488,-26.832c11.008,-19.264 12.9,-37.496 7.052,-40.764c-0.688,-0.516 -1.548,-0.688 -2.58,-0.688z" fill="#77cbd2"></path><path d="M72.756,129.172c-2.236,0 -4.3,-0.516 -6.02,-1.548c-10.32,-6.02 -8.428,-27.864 4.472,-50.568c8.944,-15.824 21.156,-27.692 30.788,-30.272c3.784,-1.032 7.396,-0.688 10.148,1.032c10.32,6.02 8.428,27.864 -4.472,50.568c-8.944,15.824 -21.156,27.692 -30.788,30.272c-1.376,0.344 -2.752,0.516 -4.128,0.516zM106.124,48.676c-1.204,0 -2.236,0.172 -3.612,0.516c-9.116,2.408 -20.64,13.932 -29.412,29.068c-12.04,21.156 -14.448,41.968 -5.332,47.3c2.236,1.376 5.16,1.548 8.428,0.688c9.116,-2.408 20.64,-13.932 29.412,-29.068c12.04,-21.156 14.448,-41.968 5.332,-47.3c-1.376,-0.86 -2.924,-1.204 -4.816,-1.204zM72.756,123.152c-1.204,0 -2.236,-0.172 -3.096,-0.688c-7.052,-4.128 -3.956,-23.908 6.708,-42.484c8.084,-14.276 19.092,-25.284 27.176,-27.348c2.236,-0.688 4.128,-0.516 5.676,0.344c7.052,4.128 3.956,23.908 -6.708,42.484c-8.084,14.276 -19.092,25.284 -27.176,27.348c-0.86,0.344 -1.892,0.344 -2.58,0.344zM106.124,54.696c-0.516,0 -1.204,0.172 -2.064,0.344c-7.568,2.064 -17.888,12.556 -25.8,26.316c-11.352,19.952 -12.04,36.464 -7.568,39.216c0.86,0.516 2.236,0.516 3.784,0.172c7.568,-2.064 17.888,-12.556 25.8,-26.316c11.352,-19.952 12.04,-36.464 7.568,-39.216c-0.344,-0.344 -1.032,-0.516 -1.72,-0.516z" fill="#472b29"></path><path d="M106.124,127.968c-1.204,0 -2.58,-0.172 -3.784,-0.516c-9.46,-2.58 -21.328,-14.276 -30.1,-29.756c-12.556,-22.188 -14.792,-43.172 -4.988,-48.848c2.58,-1.548 5.848,-1.892 9.288,-0.86c9.46,2.58 21.328,14.276 30.1,29.756c12.556,22.188 14.792,43.172 4.988,48.848c-1.548,0.86 -3.44,1.376 -5.504,1.376zM72.756,53.492c-0.86,0 -1.72,0.172 -2.408,0.516c-5.676,3.268 -3.956,21.5 7.052,40.764c7.912,13.932 18.576,24.768 26.488,26.832c1.892,0.516 3.612,0.516 4.816,-0.344c5.676,-3.268 3.956,-21.5 -7.052,-40.764c-7.912,-13.932 -18.576,-24.768 -26.488,-26.832c-1.032,-0.172 -1.72,-0.172 -2.408,-0.172z" fill="#77cbd2"></path><path d="M106.124,129.172c-1.376,0 -2.752,-0.172 -4.128,-0.516c-9.804,-2.58 -21.844,-14.448 -30.788,-30.272c-13.244,-23.048 -15.136,-44.376 -4.472,-50.568c2.924,-1.72 6.364,-2.064 10.148,-1.032c9.804,2.58 21.844,14.448 30.788,30.272c12.9,22.704 14.964,44.376 4.472,50.568c-1.72,1.032 -3.784,1.548 -6.02,1.548zM72.756,48.676c-1.72,0 -3.44,0.344 -4.816,1.204c-9.116,5.332 -6.708,25.972 5.332,47.3c8.6,15.308 20.296,26.66 29.412,29.068c3.096,0.86 6.02,0.516 8.428,-0.688c9.116,-5.332 6.708,-25.972 -5.332,-47.3c-8.6,-15.308 -20.296,-26.66 -29.412,-29.068c-1.376,-0.344 -2.58,-0.516 -3.612,-0.516zM106.124,123.152c-0.86,0 -1.72,-0.172 -2.58,-0.344c-8.256,-2.236 -19.092,-13.244 -27.176,-27.348c-10.492,-18.576 -13.588,-38.356 -6.708,-42.484c1.548,-0.86 3.44,-1.032 5.676,-0.344c8.256,2.236 19.092,13.244 27.176,27.348c10.492,18.576 13.588,38.356 6.708,42.484c-0.86,0.516 -1.892,0.688 -3.096,0.688zM72.756,54.696c-0.688,0 -1.376,0.172 -1.892,0.516c-4.472,2.58 -3.784,19.264 7.568,39.216c7.74,13.76 18.232,24.252 25.8,26.316c1.72,0.516 2.924,0.344 3.784,-0.172c4.472,-2.58 3.784,-19.264 -7.568,-39.216c-7.74,-13.76 -18.232,-24.252 -25.8,-26.316c-0.688,-0.344 -1.376,-0.344 -1.892,-0.344z" fill="#472b29"></path><circle cx="52" cy="51" transform="scale(1.72,1.72)" r="5.5" fill="#77cbd2"></circle><path d="M89.44,98.04c-5.676,0 -10.32,-4.644 -10.32,-10.32c0,-5.676 4.644,-10.32 10.32,-10.32c5.676,0 10.32,4.644 10.32,10.32c0,5.676 -4.644,10.32 -10.32,10.32zM89.44,79.12c-4.816,0 -8.6,3.784 -8.6,8.6c0,4.816 3.784,8.6 8.6,8.6c4.816,0 8.6,-3.784 8.6,-8.6c0,-4.816 -3.784,-8.6 -8.6,-8.6z" fill="#472b29"></path><path d="M89.44,93.74c-0.172,0 -0.516,-0.172 -0.516,-0.516c0,-0.344 0.344,-0.344 0.516,-0.344c0.516,0 1.204,-0.172 1.72,-0.344c0.688,-0.344 1.548,-0.688 2.064,-1.376c0.172,-0.172 0.516,-0.172 0.688,0c0.172,0.172 0.172,0.516 0,0.688c-0.688,0.688 -1.548,1.204 -2.408,1.548c-0.688,0.172 -1.376,0.344 -2.064,0.344z" fill="#472b29"></path><g fill="#472b29"><path d="M94.428,90.644h-0.172c-0.172,-0.172 -0.344,-0.344 -0.172,-0.516c0.344,-0.688 0.516,-1.548 0.516,-2.236c0,-2.064 -1.032,-3.784 -2.924,-4.644c-0.172,-0.172 -0.344,-0.344 -0.172,-0.516c0.172,-0.172 0.344,-0.344 0.516,-0.172c2.064,1.032 3.44,3.096 3.44,5.332c0,0.86 -0.172,1.892 -0.688,2.58c0,0 -0.172,0.172 -0.344,0.172z"></path></g><g fill="#472b29"><path d="M86.344,83.42c-0.172,0 -0.344,0 -0.344,-0.172c-0.172,-0.172 0,-0.516 0.172,-0.516c1.032,-0.688 2.064,-1.032 3.268,-1.032c0.172,0 0.516,0.172 0.516,0.516c0,0.344 -0.344,0.344 -0.516,0.344c-1.032,0 -1.892,0.344 -2.752,0.86c-0.172,0 -0.172,0 -0.344,0z"></path></g><g fill="#472b29"><path d="M95.116,66.564c-0.172,0 -0.172,0 -0.344,-0.172c-5.848,-7.224 -11.524,-12.04 -16.512,-14.276c-0.172,-0.172 -0.344,-0.344 -0.172,-0.516c0.172,-0.172 0.344,-0.344 0.516,-0.172c5.16,2.236 11.008,7.052 16.856,14.62c0.172,0.172 0.172,0.516 0,0.688c-0.172,-0.172 -0.344,-0.172 -0.344,-0.172z"></path></g><g fill="#472b29"><path d="M67.94,52.288c-0.172,0 -0.172,0 -0.344,-0.172c-0.172,-0.172 -0.172,-0.516 0,-0.688c0.516,-0.344 2.924,-2.064 7.568,-1.204c0.172,0 0.344,0.344 0.344,0.516c0,0.172 -0.344,0.344 -0.516,0.344c-4.3,-0.86 -6.708,0.688 -6.88,1.032z"></path></g><g fill="#472b29"><path d="M126.592,96.492c-0.172,0 -0.172,0 -0.344,-0.172c-0.172,-0.172 -0.172,-0.516 0,-0.688c3.784,-3.096 5.16,-6.536 4.3,-10.492c0,-0.172 0.172,-0.516 0.344,-0.516c0.172,0 0.516,0.172 0.516,0.344c0.86,4.128 -0.688,8.084 -4.644,11.352c0,0.172 0,0.172 -0.172,0.172z"></path></g><g fill="#472b29"><path d="M119.712,100.276c-0.172,0 -0.344,-0.172 -0.344,-0.344c0,-0.172 0,-0.516 0.344,-0.516c0,0 2.236,-0.688 4.644,-2.236c0.172,-0.172 0.516,0 0.516,0.172c0.172,0.172 0,0.516 -0.172,0.516c-2.58,1.72 -4.816,2.408 -4.988,2.408c0.172,0 0,0 0,0z"></path></g><g fill="#472b29"><path d="M72.068,125.56v0c-4.3,-0.172 -7.052,-3.268 -8.084,-9.116c0,-0.172 0.172,-0.516 0.344,-0.516c0.172,0 0.516,0.172 0.516,0.344c0.86,5.504 3.268,8.256 7.224,8.428c0.172,0 0.344,0.172 0.344,0.516c0,0 -0.172,0.344 -0.344,0.344z"></path></g><g fill="#472b29"><path d="M64.156,112.832c-0.172,0 -0.344,-0.172 -0.516,-0.344c-0.172,-3.612 0.344,-6.88 0.516,-7.224c0,-0.172 0.344,-0.344 0.516,-0.344c0.172,0 0.344,0.344 0.344,0.516c0,0.172 -0.516,3.268 -0.516,7.052c0,0.172 -0.172,0.344 -0.344,0.344z"></path></g><g><path d="M136.224,110.596c3.268,0 6.02,0 6.02,0c3.612,0 6.536,-2.924 6.536,-6.364c0,-3.096 -2.236,-5.676 -5.16,-6.364c0,-0.344 0,-0.516 0,-0.86c0,-3.612 -3.096,-6.708 -6.88,-6.708c-2.236,0 -4.128,1.032 -5.504,2.58c-0.344,-4.128 -4.128,-7.224 -8.428,-6.708c-3.268,0.344 -5.848,2.752 -6.364,5.848c-0.172,1.032 -0.172,1.892 0,2.924c-0.86,-0.86 -2.064,-1.548 -3.44,-1.548c-2.408,0 -4.472,1.892 -4.644,4.3c-1.204,-0.172 -2.408,-0.172 -3.612,0.172c-2.408,0.86 -4.3,3.268 -4.3,5.848c-0.172,3.612 2.924,6.708 6.536,6.708c0.344,0 1.204,0 1.548,0h13.588M125.044,110.596h0.688" fill="#fdfcef"></path><path d="M142.244,111.456h-6.02c-0.516,0 -0.86,-0.344 -0.86,-0.86c0,-0.516 0.344,-0.86 0.86,-0.86h6.02c3.096,0 5.676,-2.58 5.676,-5.504c0,-2.58 -1.892,-4.988 -4.472,-5.504c-0.516,-0.172 -0.688,-0.516 -0.688,-1.032c0,-0.172 0,-0.516 0,-0.688c0,-3.268 -2.752,-5.848 -6.02,-5.848c-1.892,0 -3.612,0.86 -4.816,2.236c-0.172,0.344 -0.516,0.344 -0.86,0.344c-0.344,-0.172 -0.516,-0.344 -0.688,-0.688c-0.172,-1.72 -1.032,-3.268 -2.408,-4.472c-1.376,-1.204 -3.268,-1.72 -5.16,-1.548c-2.752,0.344 -5.16,2.408 -5.676,5.16c-0.172,0.86 -0.172,1.72 0,2.58c0,0.344 -0.172,0.688 -0.516,0.86c-0.344,0.172 -0.688,0.172 -1.032,-0.172c-0.688,-0.86 -1.72,-1.204 -2.752,-1.204c-2.064,0 -3.612,1.548 -3.784,3.44c0,0.172 -0.172,0.516 -0.344,0.688c-0.172,0.172 -0.516,0.172 -0.688,0.172c-1.032,-0.172 -2.064,-0.172 -3.096,0.172c-2.236,0.86 -3.612,2.752 -3.784,4.988c0,1.548 0.516,2.924 1.548,3.956c1.032,1.204 2.58,1.72 4.128,1.72h15.136c0.516,0 0.86,0.344 0.86,0.86c0,0.516 -0.344,0.86 -0.86,0.86h-15.136c-2.064,0 -3.956,-0.86 -5.332,-2.236c-1.376,-1.376 -2.064,-3.268 -2.064,-5.332c0.172,-2.924 2.064,-5.504 4.816,-6.536c1.032,-0.344 2.064,-0.516 3.268,-0.344c0.516,-2.408 2.752,-4.128 5.332,-4.128c0.86,0 1.72,0.172 2.408,0.516c0,-0.344 0,-0.86 0.172,-1.204c0.688,-3.44 3.612,-6.192 7.224,-6.536c2.408,-0.344 4.644,0.344 6.364,1.892c1.204,1.032 2.236,2.408 2.58,3.956c1.376,-1.032 3.096,-1.72 4.816,-1.72c4.3,0 7.74,3.44 7.74,7.568v0.172c3.096,1.032 5.16,3.784 5.16,6.88c0.344,4.128 -2.924,7.396 -7.052,7.396zM125.732,111.456h-0.688c-0.516,0 -0.86,-0.344 -0.86,-0.86c0,-0.516 0.344,-0.86 0.86,-0.86h0.688c0.516,0 0.86,0.344 0.86,0.86c0,0.516 -0.516,0.86 -0.86,0.86z" fill="#472b29"></path><g fill="#472b29"><path d="M139.32,101.48v0c-0.344,0 -0.516,-0.344 -0.344,-0.516c0,-0.344 0.172,-0.516 0.344,-0.86c1.032,-2.064 3.956,-2.924 6.364,-1.72c0.172,0.172 0.344,0.344 0.172,0.516c-0.172,0.172 -0.344,0.344 -0.516,0.172c-2.064,-1.032 -4.472,-0.344 -5.332,1.376c-0.172,0.172 -0.172,0.344 -0.172,0.688c-0.172,0.172 -0.344,0.344 -0.516,0.344z"></path></g><g fill="#472b29"><path d="M130.548,111.456h-1.892c-0.516,0 -0.86,-0.344 -0.86,-0.86c0,-0.516 0.344,-0.86 0.86,-0.86h1.892c0.516,0 0.86,0.344 0.86,0.86c0,0.516 -0.516,0.86 -0.86,0.86z"></path></g></g></g></g></svg>